<?xml version="1.0" encoding="utf-8"?>
<!-- Generator: Adobe Illustrator 18.0.0, SVG Export Plug-In . SVG Version: 6.00 Build 0)  -->
<!DOCTYPE svg PUBLIC "-//W3C//DTD SVG 1.1//EN" "http://www.w3.org/Graphics/SVG/1.1/DTD/svg11.dtd" [
	<!ENTITY ns_flows "http://ns.adobe.com/Flows/1.0/">
	<!ENTITY ns_extend "http://ns.adobe.com/Extensibility/1.0/">
	<!ENTITY ns_ai "http://ns.adobe.com/AdobeIllustrator/10.0/">
	<!ENTITY ns_graphs "http://ns.adobe.com/Graphs/1.0/">
]>
<svg version="1.1" xmlns:x="&ns_extend;" xmlns:i="&ns_ai;" xmlns:graph="&ns_graphs;"
	 xmlns="http://www.w3.org/2000/svg" xmlns:xlink="http://www.w3.org/1999/xlink" xmlns:a="http://ns.adobe.com/AdobeSVGViewerExtensions/3.0/"
	 x="0px" y="0px" width="2272px" height="1872px" viewBox="0 0 2272 1872" enable-background="new 0 0 2272 1872"
	 xml:space="preserve">
<g id="Layer_2">
</g>
<g id="Layer_1">
	<g>
		<g>
			<g>
				<path fill="#1688C9" d="M1397.6,789.4H954.7c-20.5,0-37-16.6-37-37V429.9c0-20.5,16.6-37,37-37h442.8c20.5,0,37,16.6,37,37
					v322.5C1434.6,772.8,1418,789.4,1397.6,789.4z"/>
			</g>
			<g>
				<path fill="#1688C9" d="M1283,419.9h-213.7v-61.1c0-23,18.7-41.7,41.7-41.7h130.3c23,0,41.7,18.7,41.7,41.7V419.9z M1089,400.3
					h174.4v-41.5c0-12.1-9.9-22-22-22H1111c-12.1,0-22,9.9-22,22V400.3z"/>
			</g>
			<g>
				<g>
					<path fill="#55A7DD" d="M1042.9,407.1H990v-22.4c0-3.5,2.8-6.3,6.3-6.3h40.4c3.5,0,6.3,2.8,6.3,6.3V407.1z"/>
				</g>
				<g>
					<path fill="#55A7DD" d="M1362.3,407.1h-52.9v-22.4c0-3.5,2.8-6.3,6.3-6.3h40.4c3.5,0,6.3,2.8,6.3,6.3V407.1z"/>
				</g>
			</g>
			<g>
				<path fill="#FFFFFF" d="M1276.4,556.7h-65.8v-65.8c0-8.7-7-15.7-15.7-15.7h-37.3c-8.7,0-15.7,7-15.7,15.7v65.8h-65.8
					c-8.7,0-15.7,7-15.7,15.7v37.3c0,8.7,7,15.7,15.7,15.7h65.8v65.8c0,8.7,7,15.7,15.7,15.7h37.3c8.7,0,15.7-7,15.7-15.7v-65.8
					h65.8c8.7,0,15.7-7,15.7-15.7v-37.3C1292.1,563.8,1285.1,556.7,1276.4,556.7z"/>
			</g>
		</g>
		<g>
			<g>
				
					<rect x="1898.6" y="451.9" transform="matrix(0.7071 -0.7071 0.7071 0.7071 239.3554 1545.166)" fill="#55A7DD" width="172.5" height="63.6"/>
				<path fill="#1688C9" d="M2074.7,474L2074.7,474c-6.2,6.2-16.3,6.2-22.5,0l-57.8-57.8c-6.2-6.2-6.2-16.3,0-22.5v0
					c6.2-6.2,16.3-6.2,22.5,0l57.8,57.8C2080.9,457.8,2080.9,467.8,2074.7,474z"/>
			</g>
			<path fill="#1688C9" d="M1864,501.8h-241.7c0,97.6,102.1,158.9,102.1,158.9v56.7h279.2v-56.7c0,0,102.1-61.3,102.1-158.9H1864z"
				/>
			<path fill="#FFFFFF" d="M1917,577.2h-34.8v-34.8c0-4.6-3.7-8.3-8.3-8.3h-19.7c-4.6,0-8.3,3.7-8.3,8.3v34.8H1811
				c-4.6,0-8.3,3.7-8.3,8.3v19.7c0,4.6,3.7,8.3,8.3,8.3h34.8v34.8c0,4.6,3.7,8.3,8.3,8.3h19.7c4.6,0,8.3-3.7,8.3-8.3v-34.8h34.8
				c4.6,0,8.3-3.7,8.3-8.3v-19.7C1925.3,581,1921.6,577.2,1917,577.2z"/>
		</g>
		<g>
			<g>
				<path fill="#1688C9" d="M787,289.4c-49-2.6-97.5-14-142.5-33.5c-12.5-5.4-24.9-11.5-38.2-14.3c-13.3-2.8-28.1-1.8-39.3,5.9
					c-12.6,8.7-18.5,24.3-21.1,39.4c-2.6,15.1-2.7,30.6-7,45.3c-4.3,14.7-14.2,29-29,32.9c-3.3,0.9-6.9,1.3-10.4,1.8v-22.7
					c15.5-7.6,26.2-23.6,26.2-42c0-25.9-21-46.8-46.8-46.8c-25.9,0-46.8,21-46.8,46.8c0,18.4,10.7,34.4,26.2,42v22.2
					c-2.5-0.4-5-0.7-7.3-1.4c-14.8-3.9-24.7-18.3-29-32.9c-4.3-14.7-4.4-30.2-7-45.3c-2.6-15.1-8.5-30.7-21.1-39.4
					c-11.2-7.7-26-8.7-39.3-5.9c-13.3,2.8-25.7,8.9-38.2,14.3c-45,19.5-93.5,30.9-142.5,33.5c-7.4,0.4-10.1,9.8-4.1,14.1
					c14.9,10.6,34.5,14.7,52.2,10c-3.8,4.6-8.7,8.2-14.1,10.7c-5.8,2.6-5.9,10.8-0.4,13.8c6.6,3.6,13.5,6.7,20.7,8.8
					c13.7,3.9,29.1,3.5,41.1-4c-2.5,8.4-7.5,15.9-14.1,21.6c-4.9,4.2-2.9,12.3,3.4,13.8c6.8,1.7,13.7,2.9,20.7,3.3
					c13.4,0.7,27.4-2.1,37.9-10.4c-1.6,7.4-4.7,14.5-9,20.7c-3.5,5.1,0.5,12,6.6,11.4c9.7-1,19.2-4.4,27.2-10.1
					c9.5-6.7,17.4-16.5,28.8-18.9c16.2-3.4,30.6,9.5,45.2,17.5c10.6,5.8,22.6,9.1,34.7,9.6c2.5,0.1,5.1,0.1,7.7-0.2v201.3v42.9V673
					v11.2v29.4v59.3v26.4v17.1v29.3c0,11.4,9.2,20.6,20.6,20.6c11.4,0,20.6-9.2,20.6-20.6v-29.5V800v-25.8v-61.9v-28.9v-10.1v-26.9
					v-44.9V400.6c3.5,0.6,7.2,0.8,10.8,0.6c12.1-0.5,24.1-3.8,34.7-9.6c14.6-7.9,29-20.9,45.2-17.5c11.3,2.4,19.3,12.3,28.8,18.9
					c8,5.6,17.5,9.1,27.2,10.1c6.2,0.6,10.2-6.4,6.6-11.4c-4.3-6.2-7.4-13.3-9-20.7c10.5,8.3,24.5,11.2,37.9,10.4
					c7-0.4,13.9-1.6,20.7-3.3c6.2-1.5,8.3-9.6,3.4-13.8c-6.6-5.7-11.7-13.2-14.1-21.6c12,7.5,27.5,7.8,41.1,4
					c7.3-2,14.1-5.2,20.7-8.8c5.6-3,5.4-11.3-0.4-13.8c-5.4-2.4-10.3-6.1-14.1-10.7c17.7,4.7,37.3,0.6,52.2-10
					C797,299.2,794.3,289.7,787,289.4z"/>
				<path fill="#55A7DD" d="M568,448.9c-2.1-1.1-4.2-2-6.5-2.7c-4.8-5.9-15-10-26.8-10c-16.4,0-29.7,7.8-29.7,17.4
					c0,9.6,13.3,17.4,29.7,17.4c8.9,0,16.9-2.3,22.4-6c1.4,0.6,2.6,1.4,3.7,2.2c8.5,6.7,5.8,21.5,3.5,30.3
					c-2.8,10.7-9.2,20.2-16.5,28.3c-13.2,14.8-30.7,23-48.5,30.7v44.8c10.8,11.9,13.8,27.8,1.7,42.9c-0.6,0.7-1.1,1.4-1.7,2
					c-6,7-13.3,12.9-20.4,18.7c-6.1-5.3-12.1-10.7-17.8-16.5c-1.1-1.1-2.1-2.3-3.1-3.5c-5.7-6.9-9.4-14.7-9.1-24
					c0.2-7.2,4.1-13.6,9.1-19v-45.5c-16.4-7.3-32.1-15.8-45.2-28.6c-13.8-13.4-28.1-39.5-17.4-58.5c1.2-2.2,3.4-3.6,6-4.6
					c5.4,3.6,13.4,5.9,22.2,5.9c16.4,0,29.7-7.8,29.7-17.4c0-9.6-13.3-17.4-29.7-17.4c-12,0-22.4,4.2-27.1,10.3
					c-1.5,0.5-2.9,1-4.3,1.6c-21.4,9.1-22.2,35.4-17.2,54.8c5.9,22.5,22.6,40.3,40.9,53.5c12.8,9.2,27.1,15.2,41.4,21.2
					c-6.9,4.8-13.3,10.4-18.7,17.4c-11.9,15.4-11.9,35.5-3.2,52.2c5.2,10.1,13.6,18.2,22.4,25.7c2,1.7,4.1,3.4,6.2,5.1
					c-2.1,2-4.2,4-6.2,6.1c-3.4,3.4-6.7,6.9-9.8,10.6c-15.6,18.4-26.3,41.5-19.8,65.8c4.3,16.1,16.5,28.4,29.6,38.7v-26.4
					c-6.2-6.8-10.8-14.6-12-23.8c-1.6-12.8,4.1-24.8,12-35.4c6.4-8.6,14.3-16.3,21-22.7c0.1,0,0.1-0.1,0.2-0.1
					c7,6.3,14.2,13.5,20.1,21.5c7.4,10,12.9,21.3,13.2,33.6c0.3,11-5.5,20.4-13.2,28.3V800c12.5-10,23.3-21.3,29.7-36.7
					c9.4-22.8-2.5-48.2-16.7-65.9c-4-5-8.4-9.6-12.9-14c-1.9-1.8-3.7-3.6-5.6-5.3c1.9-1.6,3.8-3.2,5.6-4.8
					c8.2-7.1,15.9-14.5,22.1-23.7c10.7-16.1,9.6-36-0.2-52.2c-5.1-8.5-12.3-15-20.4-20.3c12.3-5.1,24.7-10,36-17
					c20.8-12.8,37.2-31.1,45.5-54.2C589.2,487,588.1,459.2,568,448.9z M533.8,451.2c-2.3,0-4.2-1.9-4.2-4.2c0-2.3,1.9-4.2,4.2-4.2
					c2.3,0,4.2,1.9,4.2,4.2C538,449.3,536.1,451.2,533.8,451.2z M424.7,442.9c2.3,0,4.2,1.9,4.2,4.2c0,2.3-1.9,4.2-4.2,4.2
					c-2.3,0-4.2-1.9-4.2-4.2C420.5,444.7,422.4,442.9,424.7,442.9z"/>
			</g>
			<path fill="#FFFFFF" d="M503.8,293.6h-16.5v-16.5c0-2.2-1.8-3.9-3.9-3.9h-9.4c-2.2,0-3.9,1.8-3.9,3.9v16.5h-16.5
				c-2.2,0-3.9,1.8-3.9,3.9v9.4c0,2.2,1.8,3.9,3.9,3.9h16.5v16.5c0,2.2,1.8,3.9,3.9,3.9h9.4c2.2,0,3.9-1.8,3.9-3.9v-16.5h16.5
				c2.2,0,3.9-1.8,3.9-3.9v-9.4C507.8,295.4,506,293.6,503.8,293.6z"/>
		</g>
		<g>
			<path fill="#55A7DD" d="M429.8,1041.2c-9.9,1.2-19.7,0.8-29.5-1.1c-2.9-5.8-6.4-11.2-10.6-16.2c-4-4.9-10.9,2.1-6.9,6.9
				c3.1,3.8,5.7,7.9,8,12.2c-2.5,2.8-5.2,6-8.2,7.6c-5.6,2.9-0.7,11.4,5,8.5c3.9-2,7.2-5.9,10.4-9.4c10.5,2.1,21.1,2.7,31.8,1.4
				C436,1050.3,436.1,1040.5,429.8,1041.2z"/>
			<rect x="441.8" y="1254.3" fill="#1688C9" width="47.8" height="311.4"/>
			<path fill="#1688C9" d="M569.5,1603.2h-212l0,0c0-20.7,16.8-37.5,37.5-37.5H532C552.7,1565.6,569.5,1582.4,569.5,1603.2
				L569.5,1603.2z"/>
			<path fill="#1688C9" d="M465.6,1352.6c108.6,0,196.7-88,196.7-196.7H269C269,1264.5,357,1352.6,465.6,1352.6z"/>
			<path fill="#55A7DD" d="M481,1005.5c-35.5,0-64.3,16.2-64.3,36.1c0,19.9,28.8,36.1,64.3,36.1c35.5,0,64.3-16.2,64.3-36.1
				C545.3,1021.6,516.5,1005.5,481,1005.5z M469.3,1039.4c-4.8,0-8.7-3.9-8.7-8.7s3.9-8.7,8.7-8.7c4.8,0,8.7,3.9,8.7,8.7
				S474.1,1039.4,469.3,1039.4z"/>
			<g>
				<path fill="#55A7DD" d="M489.5,1542.3c0.2-1.1,0.3-2.2,0.3-3.3c0-1.3-0.1-2.5-0.3-3.6V1542.3z"/>
				<path fill="#55A7DD" d="M732.3,1189.7c-22.5-93.6-117.5-174.5-215.3-171.4c-8.3,0.3-16.7,1.5-24.9,2.9
					c-10.6,1.8-16.3,14.6-13.7,24.2c3.1,11.1,13.6,15.5,24.2,13.7c90.7-15.4,178.1,67.7,194.2,152.4
					c15.7,82.4-49.7,157.4-130.4,167.2c-30.8,3.7-62.6-0.4-93.6,0.6c-34.8,1.2-70.6,5.2-102.5,20.1c-31.8,14.9-52.6,48.2-45.5,83.8
					c10.8,53.9,69.4,67.7,117,73v-39c-35.8-3.6-80.2-13.2-78.9-50.6c0-0.4,0.3-2.6,0.3-3.3c0.2-1.1,0.5-2.3,0.8-3.4
					c0.2-1,0.6-2,0.9-2.9c-0.1,0.5,0.9-2.3,1.2-2.9c0.6-1.2,4.3-6.4,3.8-6c1.8-2.1,3.7-4,5.8-5.8c0.1-0.1,2.2-1.8,2.6-2
					c1.4-1,2.8-1.8,4.2-2.7c3-1.8,6.1-3.4,9.2-4.8c0.3-0.1,0.6-0.3,0.8-0.4c0.3-0.1,0.7-0.2,1.2-0.5c1.7-0.7,3.5-1.3,5.2-1.9
					c4.2-1.5,8.5-2.7,12.8-3.8c17.7-4.6,29-5.6,46.8-6.8c16.2-1.1,32.6-1.2,48.8-1c36.7,0.5,71.9,1.5,107.1-11.3
					c41.8-15.3,77.7-44.4,100.2-82.9C738.4,1283.4,743.2,1235,732.3,1189.7z"/>
			</g>
			<path fill="#FFFFFF" d="M513.7,1226.8h-31.6v-31.6c0-4.2-3.4-7.5-7.5-7.5h-17.9c-4.2,0-7.5,3.4-7.5,7.5v31.6h-31.6
				c-4.2,0-7.5,3.4-7.5,7.5v17.9c0,4.2,3.4,7.5,7.5,7.5h31.6v31.6c0,4.2,3.4,7.5,7.5,7.5h17.9c4.2,0,7.5-3.4,7.5-7.5v-31.6h31.6
				c4.2,0,7.5-3.4,7.5-7.5v-17.9C521.2,1230.2,517.8,1226.8,513.7,1226.8z"/>
		</g>
		<g>
			<path fill="#1688C9" d="M1476.5,1230.2c-1.4,2.5-3.1,4.8-5,7c-8,9.1-19.6,14.3-31.7,14.3h-12.7c-15.6,0-29.2-8.3-36.5-21
				c-1.5,2.6-3.3,5-5.3,7.2c-8,8.7-19.3,13.7-31.2,13.7h-12.9c-15.5,0-29.1-8.3-36.4-20.8c-1.6,2.7-3.5,5.3-5.7,7.6
				c-8.1,8.5-19,13.2-30.7,13.2h-13c-15.4,0-28.9-8.4-36.3-20.9c-1.7,2.9-3.8,5.7-6.3,8.2c-8,8.2-18.7,12.6-30.1,12.6h-13.1
				c-11.4,0-22.1-4.5-30.1-12.6c-2.5-2.5-4.5-5.3-6.3-8.2c-7.4,12.4-21,20.9-36.3,20.9h-13c-11.7,0-22.6-4.7-30.7-13.2
				c-2.2-2.4-4.1-4.9-5.7-7.6c-7.4,12.5-21,20.8-36.4,20.8h-12.9c-11.8,0-23.2-5-31.2-13.7c-2-2.2-3.8-4.7-5.3-7.2
				c-7.3,12.6-20.9,21-36.5,21h-12.7c-12.1,0-23.6-5.2-31.7-14.3c-1.9-2.2-3.6-4.5-5-7c-2.2,3.8-5,7.2-8.2,10.2v335.3h617.1v-335.3
				C1481.5,1237.5,1478.7,1234,1476.5,1230.2z"/>
			<g>
				<path fill="#1688C9" d="M839.1,1245.6h-12.3c-22.4,0-39.4-20-35.9-42.1l22.2-139.8c2.8-17.8,18.2-30.9,36.2-30.9h48.3
					l-22.4,180.8C873,1231.9,857.5,1245.6,839.1,1245.6z"/>
				<path fill="#55A7DD" d="M925.1,1245.6h-12.7c-21.9,0-38.8-19.1-36.1-40.8l21.3-171.9h79.6l-15.9,179.5
					C959.7,1231.2,943.9,1245.6,925.1,1245.6z"/>
				<path fill="#1688C9" d="M1011,1245.6h-12.9c-21.3,0-38.1-18.3-36.2-39.6l15.3-173.1h79.6l-9.5,178.2
					C1046.3,1230.5,1030.3,1245.6,1011,1245.6z"/>
				<path fill="#55A7DD" d="M1096.9,1245.6h-13c-20.8,0-37.4-17.5-36.3-38.3l9.2-174.4h79.6l-3.1,177
					C1132.9,1229.7,1116.7,1245.6,1096.9,1245.6z"/>
				<path fill="#1688C9" d="M1182.7,1245.6h-13.1c-20.3,0-36.7-16.7-36.4-37l3.1-175.7h79.6l3.1,175.7
					C1219.4,1228.9,1203,1245.6,1182.7,1245.6z"/>
				<path fill="#55A7DD" d="M1268.4,1245.6h-13c-19.8,0-36-15.9-36.4-35.7l-3.1-177h79.6l9.2,174.4
					C1305.9,1228.1,1289.3,1245.6,1268.4,1245.6z"/>
				<path fill="#1688C9" d="M1354.2,1245.6h-12.9c-19.3,0-35.3-15.1-36.3-34.4l-9.5-178.2h79.6l15.3,173.1
					C1392.3,1227.3,1375.5,1245.6,1354.2,1245.6z"/>
				<path fill="#55A7DD" d="M1439.9,1245.6h-12.7c-18.8,0-34.6-14.4-36.2-33.2l-15.9-179.5h79.6l21.3,171.9
					C1478.6,1226.5,1461.7,1245.6,1439.9,1245.6z"/>
				<path fill="#1688C9" d="M1525.5,1245.6h-12.3c-18.4,0-33.8-13.7-36.1-31.9l-22.4-180.8h48.3c18,0,33.3,13.1,36.2,30.9
					l22.2,139.8C1564.9,1225.6,1547.8,1245.6,1525.5,1245.6z"/>
			</g>
			<rect x="943" y="1289.1" fill="#55A7DD" width="135.6" height="286.6"/>
			<rect x="1136.4" y="1289.1" fill="#55A7DD" width="289.3" height="194.2"/>
			<polygon fill="#FFFFFF" points="1343.8,1364 1303.2,1364 1303.2,1323.4 1258.8,1323.4 1258.8,1364 1218.2,1364 1218.2,1408.4 
				1258.8,1408.4 1258.8,1449 1303.2,1449 1303.2,1408.4 1343.8,1408.4 			"/>
		</g>
		<g>
			<g>
				<rect x="1632.6" y="1013.8" fill="#1688C9" width="462.8" height="581"/>
			</g>
			<g>
				<path fill="#FFFFFF" d="M1737.7,1081.1h-24.4v-24.4c0-3.2-2.6-5.8-5.8-5.8h-13.8c-3.2,0-5.8,2.6-5.8,5.8v24.4h-24.4
					c-3.2,0-5.8,2.6-5.8,5.8v13.8c0,3.2,2.6,5.8,5.8,5.8h24.4v24.4c0,3.2,2.6,5.8,5.8,5.8h13.8c3.2,0,5.8-2.6,5.8-5.8v-24.4h24.4
					c3.2,0,5.8-2.6,5.8-5.8V1087C1743.5,1083.7,1740.9,1081.1,1737.7,1081.1z"/>
			</g>
			<g>
				<rect x="1792.6" y="1166.6" fill="#FFFFFF" width="250.2" height="5.9"/>
			</g>
			<g>
				<rect x="1700.6" y="1207.2" fill="#FFFFFF" width="342.3" height="5.9"/>
			</g>
			<g>
				<rect x="1700.6" y="1247.8" fill="#FFFFFF" width="342.3" height="5.9"/>
			</g>
			<g>
				<rect x="1700.6" y="1288.4" fill="#FFFFFF" width="342.3" height="5.9"/>
			</g>
			<g>
				<rect x="1700.6" y="1329.1" fill="#FFFFFF" width="342.3" height="5.9"/>
			</g>
			<g>
				<rect x="1700.6" y="1369.7" fill="#FFFFFF" width="342.3" height="5.9"/>
			</g>
			<g>
				<rect x="1700.6" y="1410.3" fill="#FFFFFF" width="342.3" height="5.9"/>
			</g>
			<g>
				<rect x="1843.7" y="1482.5" fill="#FFFFFF" width="199.2" height="5.9"/>
			</g>
			<g>
				<rect x="1782.1" y="1090.9" fill="#FFFFFF" width="260.7" height="5.9"/>
			</g>
			<g>
				<g>
					<path fill="#FFFFFF" d="M1995.5,1500.4c5.6,0,9.8,1.6,12.4,4.7c2.3,2.7,3.5,6.5,3.5,11.3v9.7c0,4.7-1.8,8.8-5.4,12l7.5,29.3
						h-10.9l-6.1-25.2c-0.3,0-0.6,0-0.9,0h-5.8v25.2h-10.1v-67H1995.5z M2001.5,1516.6c0-3.9-1.9-5.8-5.8-5.8h-6.1v21.4h6.1
						c1.6,0,3-0.6,4.1-1.7c1.1-1.1,1.7-2.5,1.7-4.1V1516.6z"/>
				</g>
				<g>
					<path fill="#FFFFFF" d="M2058.7,1567.5h-10.9l-7.8-21.3l-7.8,21.3h-10.9l13.2-33.7l-13.2-33.3h11.2l7.5,20.7l7.4-20.7h11.2
						l-13.2,33.3L2058.7,1567.5z"/>
				</g>
			</g>
		</g>
	</g>
</g>
</svg>
